<svg width="93" height="256" viewBox="0 0 93 256" fill="none" xmlns="http://www.w3.org/2000/svg">
<path d="M45.57 0H0C5.99043 0.0052706 11.9212 1.19519 17.4535 3.50179C22.9858 5.8084 28.0113 9.18651 32.243 13.4432C36.4747 17.6999 39.8297 22.7517 42.1163 28.3103C44.403 33.8688 45.5766 39.8251 45.57 45.8391V82.1609C45.5647 88.1753 46.7395 94.1319 49.0273 99.6905C51.3151 105.249 54.671 110.301 58.9035 114.557C63.136 118.814 68.1622 122.192 73.695 124.498C79.2279 126.805 85.1591 127.995 91.15 128C85.1591 128.005 79.2279 129.195 73.695 131.502C68.1622 133.808 63.136 137.186 58.9035 141.443C54.671 145.699 51.3151 150.751 49.0273 156.31C46.7395 161.868 45.5647 167.825 45.57 173.839V210.161C45.5766 216.175 44.403 222.131 42.1163 227.69C39.8297 233.248 36.4747 238.3 32.243 242.557C28.0113 246.814 22.9858 250.192 17.4535 252.498C11.9212 254.805 5.99043 255.995 0 256H92.39V0H45.57Z" fill="white"/>
</svg>
