<svg width="22" height="15" viewBox="0 0 22 15" fill="none" xmlns="http://www.w3.org/2000/svg">
<path d="M21.5393 2.3535C21.4148 1.89931 21.1722 1.48811 20.8373 1.16361C20.4929 0.829138 20.0708 0.589879 19.6109 0.468421C17.8897 0.00464606 10.9936 0.00464607 10.9936 0.00464607C8.11869 -0.0287901 5.2445 0.118271 2.38724 0.444998C1.92731 0.575429 1.50605 0.820034 1.16091 1.15706C0.821788 1.4906 0.576155 1.90191 0.447839 2.35256C0.139599 4.05002 -0.0101652 5.77358 0.000565675 7.49999C-0.0104328 9.22486 0.138964 10.9479 0.447839 12.6474C0.573405 13.0962 0.818122 13.5056 1.15816 13.8364C1.4982 14.1671 1.92164 14.406 2.38724 14.5325C4.13143 14.9953 10.9936 14.9953 10.9936 14.9953C13.8721 15.0288 16.75 14.8818 19.6109 14.555C20.0708 14.4335 20.4929 14.1943 20.8373 13.8598C21.1764 13.5291 21.4174 13.1178 21.5384 12.6699C21.8547 10.9731 22.0085 9.24884 21.9976 7.52154C22.0214 5.78694 21.8678 4.05454 21.5393 2.35256V2.3535ZM8.80121 10.708V4.29292L14.5388 7.50093L8.80121 10.708Z" fill="white"/>
</svg>
