<svg version="1.1" id="livetype" xmlns="http://www.w3.org/2000/svg" x="0" y="0" viewBox="0 0 150.58 50.33" xml:space="preserve"><style>.st1{fill:#fff}</style><path d="M138.35.1H10.87c-.38 0-.76.01-1.15.02-.84.01-1.68.08-2.51.22-.83.14-1.64.4-2.39.78-.75.39-1.43.89-2.03 1.48-.59.59-1.09 1.28-1.47 2.03-.38.75-.65 1.56-.79 2.39-.14.83-.21 1.67-.22 2.51-.01.38-.01.77-.02 1.15v28.97c.01.39.01.77.02 1.16.01.84.09 1.68.22 2.51.14.83.4 1.64.78 2.39.38.75.88 1.43 1.48 2.02.59.6 1.28 1.1 2.03 1.48.75.38 1.55.65 2.38.79.83.14 1.67.21 2.51.22.39.01.77.01 1.15.01h128.83c.38 0 .77 0 1.16-.01.84-.01 1.68-.08 2.51-.22.83-.14 1.64-.41 2.39-.79.75-.38 1.43-.88 2.03-1.48.6-.59 1.1-1.28 1.48-2.02.38-.75.64-1.56.78-2.39.14-.83.22-1.67.23-2.51v-1.16c.01-.46.01-.91.01-1.37V12.05c0-.46 0-.91-.01-1.37V9.53c-.02-.84-.09-1.68-.23-2.51-.14-.83-.4-1.63-.78-2.39-.77-1.51-2-2.74-3.51-3.51a8.72 8.72 0 00-2.39-.79c-.83-.14-1.67-.21-2.51-.22-.38-.01-.77-.01-1.16-.02-.44.01-.89.01-1.34.01z" fill="#a6a6a6"/><path d="M10.88 49.14c-.38 0-.75 0-1.13-.01-.78-.01-1.57-.08-2.34-.2-.72-.12-1.42-.36-2.08-.69a6.88 6.88 0 01-1.75-1.27c-.52-.51-.95-1.1-1.28-1.75-.33-.65-.56-1.35-.68-2.08-.13-.78-.2-1.56-.21-2.35-.01-.26-.02-1.14-.02-1.14V10.68s.01-.87.02-1.12c.01-.79.08-1.57.21-2.35.12-.73.35-1.43.68-2.08.33-.65.76-1.24 1.27-1.75.51-.52 1.1-.95 1.75-1.28a7.19 7.19 0 012.07-.68c.78-.13 1.56-.2 2.35-.21l1.13-.02H139.7l1.14.02c.78.01 1.56.08 2.33.2.73.12 1.43.36 2.09.69 1.3.67 2.36 1.73 3.03 3.03.33.65.55 1.35.67 2.07.13.78.2 1.57.22 2.37v1.12c.01.47.01.92.01 1.37v26.23c0 .46 0 .9-.01 1.35v1.17c-.01.78-.09 1.56-.21 2.32-.12.73-.35 1.43-.68 2.09-.33.64-.76 1.23-1.27 1.74-.51.52-1.1.95-1.75 1.28-.66.33-1.36.57-2.09.69-.77.13-1.56.19-2.34.2-.37.01-.75.01-1.12.01H10.88z"/><g id="_Group_"><g id="_Group_2"><g id="_Group_3"><path id="_Path_" class="st1" d="M31.34 25.54a6.192 6.192 0 012.95-5.2c-1.15-1.64-3-2.64-5-2.7-2.1-.22-4.15 1.26-5.22 1.26-1.09 0-2.74-1.24-4.52-1.2a6.67 6.67 0 00-5.61 3.42c-2.42 4.2-.62 10.37 1.71 13.76 1.16 1.66 2.52 3.52 4.3 3.45 1.74-.07 2.39-1.11 4.49-1.11 2.08 0 2.69 1.11 4.5 1.07 1.87-.03 3.04-1.67 4.16-3.35.83-1.18 1.48-2.49 1.9-3.88a5.99 5.99 0 01-3.66-5.52z"/><path id="_Path_2" class="st1" d="M27.91 15.4a6.105 6.105 0 001.4-4.38c-1.55.16-2.99.91-4.02 2.08a5.793 5.793 0 00-1.43 4.21c1.57.03 3.07-.68 4.05-1.91z"/></g></g><path class="st1" d="M53.32 34.12h-5.93l-1.42 4.21h-2.51l5.62-15.57h2.61l5.62 15.57h-2.56l-1.43-4.21zM48 32.18h4.7l-2.32-6.83h-.06L48 32.18zm21.43.47c0 3.53-1.89 5.79-4.74 5.79a3.83 3.83 0 01-3.57-1.99h-.05v5.62h-2.33v-15.1H61v1.89h.04a4.044 4.044 0 013.61-2.01c2.89.01 4.78 2.28 4.78 5.8zm-2.39 0c0-2.3-1.19-3.81-3-3.81-1.78 0-2.98 1.54-2.98 3.81 0 2.29 1.2 3.82 2.98 3.82 1.81 0 3-1.5 3-3.82zm14.88 0c0 3.53-1.89 5.79-4.74 5.79a3.83 3.83 0 01-3.57-1.99h-.05v5.62h-2.33v-15.1h2.25v1.89h.04a4.044 4.044 0 013.61-2.01c2.9.01 4.79 2.28 4.79 5.8zm-2.39 0c0-2.3-1.19-3.81-3-3.81-1.78 0-2.98 1.54-2.98 3.81 0 2.29 1.2 3.82 2.98 3.82 1.81 0 3-1.5 3-3.82zm10.65 1.34c.17 1.54 1.67 2.56 3.72 2.56 1.96 0 3.38-1.01 3.38-2.41 0-1.21-.85-1.93-2.87-2.43l-2.02-.49c-2.86-.69-4.19-2.03-4.19-4.2 0-2.69 2.34-4.53 5.66-4.53 3.29 0 5.54 1.84 5.62 4.53h-2.35c-.14-1.55-1.42-2.49-3.3-2.49s-3.16.95-3.16 2.33c0 1.1.82 1.75 2.83 2.24l1.71.42c3.19.76 4.52 2.04 4.52 4.32 0 2.91-2.32 4.74-6.01 4.74-3.45 0-5.78-1.78-5.93-4.6l2.39.01zm14.59-9.7v2.69h2.16v1.84h-2.16v6.26c0 .97.43 1.42 1.38 1.42.26 0 .51-.02.77-.05v1.83c-.43.08-.86.12-1.29.11-2.3 0-3.19-.86-3.19-3.06v-6.5h-1.65v-1.84h1.65V24.3h2.33zm3.4 8.36c0-3.57 2.1-5.81 5.38-5.81 3.29 0 5.38 2.24 5.38 5.81 0 3.58-2.08 5.81-5.38 5.81-3.29.01-5.38-2.23-5.38-5.81zm8.4 0c0-2.45-1.12-3.9-3.01-3.9-1.89 0-3.01 1.46-3.01 3.9 0 2.46 1.12 3.89 3.01 3.89 1.88 0 3.01-1.43 3.01-3.89zm4.29-5.67h2.22v1.93h.05a2.71 2.71 0 012.73-2.05c.27 0 .54.03.8.09v2.18c-.34-.1-.69-.15-1.05-.14a2.34 2.34 0 00-2.44 2.25c0 .12 0 .24.01.36v6.73h-2.33l.01-11.35zm16.54 8.01c-.31 2.06-2.32 3.47-4.89 3.47-3.3 0-5.35-2.21-5.35-5.76 0-3.56 2.06-5.87 5.25-5.87 3.14 0 5.11 2.16 5.11 5.6v.8h-8.02v.14a2.966 2.966 0 002.68 3.21c.12.01.25.01.37.01 1.13.11 2.2-.54 2.62-1.6h2.23zm-7.87-3.39h5.67a2.736 2.736 0 00-2.57-2.88c-.07 0-.14-.01-.21 0a2.872 2.872 0 00-2.89 2.86v.02z"/></g><path class="st1" d="M47.71 11.04a3.312 3.312 0 013.54 3.06c.02.22.01.44-.02.65 0 2.39-1.29 3.76-3.52 3.76H45v-7.48h2.71zm-1.54 6.42h1.41a2.351 2.351 0 002.47-2.69 2.364 2.364 0 00-2.47-2.68h-1.41v5.37zm6.37-1.76a2.68 2.68 0 012.41-2.92 2.68 2.68 0 012.92 2.41c.02.17.02.34 0 .51a2.672 2.672 0 11-5.32.52 1.82 1.82 0 01-.01-.52zm4.18 0c0-1.22-.55-1.94-1.51-1.94-.97 0-1.51.72-1.51 1.94 0 1.23.54 1.94 1.51 1.94.96 0 1.51-.72 1.51-1.94zm8.22 2.82h-1.16l-1.17-4.16h-.09l-1.16 4.16h-1.14l-1.56-5.64h1.13l1.01 4.31h.08l1.16-4.31h1.07l1.16 4.31h.09l1.01-4.31h1.11l-1.54 5.64zm2.86-5.64h1.07v.9h.08c.29-.66.97-1.06 1.68-1.01 1.01-.08 1.89.68 1.97 1.69.01.14.01.27-.01.41v3.65h-1.11v-3.37c0-.91-.39-1.36-1.22-1.36-.71-.03-1.32.52-1.35 1.23 0 .07 0 .13.01.2v3.3H67.8v-5.64zm6.57-2.21h1.11v7.85h-1.11v-7.85zm2.66 5.03a2.68 2.68 0 012.41-2.92 2.68 2.68 0 012.92 2.41c.02.17.02.34 0 .51a2.672 2.672 0 11-5.32.52 1.82 1.82 0 01-.01-.52zm4.18 0c0-1.22-.55-1.94-1.51-1.94-.97 0-1.51.72-1.51 1.94 0 1.23.54 1.94 1.51 1.94.96 0 1.51-.72 1.51-1.94zm2.31 1.22c0-1.02.76-1.6 2.1-1.69l1.53-.09v-.49c0-.6-.39-.93-1.16-.93-.62 0-1.05.23-1.18.63h-1.08c.11-.97 1.03-1.59 2.31-1.59 1.42 0 2.21.7 2.21 1.9v3.86h-1.07v-.79h-.08a1.9 1.9 0 01-1.7.89c-.94.1-1.77-.58-1.87-1.52 0-.06-.01-.12-.01-.18zm3.63-.48v-.47l-1.38.09c-.78.05-1.13.32-1.13.81 0 .51.44.8 1.05.8.73.07 1.38-.46 1.46-1.19v-.04zm2.58-.74c0-1.78.92-2.91 2.34-2.91.72-.03 1.39.35 1.73.99h.08v-3.1H95v7.85h-1.07v-.89h-.09c-.36.63-1.04 1.01-1.77.98-1.44-.01-2.34-1.14-2.34-2.92zm1.15 0c0 1.2.56 1.92 1.51 1.92.94 0 1.52-.73 1.52-1.91s-.59-1.92-1.52-1.92c-.94-.01-1.51.72-1.51 1.91zm8.73 0a2.68 2.68 0 012.41-2.92 2.68 2.68 0 012.92 2.41c.02.17.02.34 0 .51a2.672 2.672 0 11-5.32.52 1.82 1.82 0 01-.01-.52zm4.17 0c0-1.22-.55-1.94-1.51-1.94-.97 0-1.51.72-1.51 1.94 0 1.23.54 1.94 1.51 1.94.96 0 1.51-.72 1.51-1.94zm2.64-2.82h1.07v.9h.08c.29-.66.97-1.06 1.68-1.01 1.01-.08 1.89.68 1.97 1.69.01.14.01.27-.01.41v3.65h-1.11v-3.37c0-.91-.39-1.36-1.22-1.36-.71-.03-1.32.52-1.35 1.23 0 .07 0 .13.01.2v3.3h-1.11v-5.64zm11.09-1.41v1.43h1.22v.94h-1.22v2.9c0 .59.24.85.8.85.14 0 .28-.01.42-.03v.93c-.2.04-.4.05-.61.06-1.24 0-1.73-.44-1.73-1.52v-3.19h-.9v-.94h.9v-1.43h1.12zm2.75-.8h1.1v3.11h.09c.3-.67.99-1.07 1.72-1.01 1.03-.06 1.9.73 1.96 1.76.01.12 0 .23-.01.35v3.64H124v-3.37c0-.9-.42-1.36-1.21-1.36-.73-.06-1.36.48-1.42 1.21a.81.81 0 000 .22v3.3h-1.11v-7.85zM131.61 17a2.292 2.292 0 01-2.45 1.63 2.561 2.561 0 01-2.63-2.5c0-.14 0-.28.02-.42-.19-1.43.81-2.74 2.23-2.93.12-.02.24-.02.37-.02 1.57 0 2.52 1.07 2.52 2.85V16h-3.99v.06c-.07.82.54 1.54 1.36 1.61.05 0 .09.01.14.01.54.07 1.08-.2 1.34-.68h1.09zm-3.92-1.82h2.85c.06-.75-.51-1.4-1.26-1.46h-.13c-.8-.01-1.45.63-1.46 1.43v.03z" id="_Group_4"/></svg>