<svg width="250" height="218" viewBox="0 0 250 218" fill="none" xmlns="http://www.w3.org/2000/svg">
<g style="mix-blend-mode:multiply" opacity="0.5" clip-path="url(#clip0_7675_80502)">
<path d="M-82.9201 123.28C-82.9201 123.28 -82.9101 123.34 -82.9001 123.37C-82.9001 123.39 -82.8901 123.4 -82.8801 123.42C-82.8701 123.45 -82.8601 123.47 -82.8501 123.5C-82.8501 123.52 -82.8301 123.53 -82.8201 123.55C-82.8101 123.57 -82.7901 123.6 -82.7701 123.62C-82.7601 123.64 -82.7501 123.65 -82.7301 123.67C-82.7101 123.69 -82.6901 123.71 -82.6701 123.73C-82.6601 123.74 -82.6401 123.76 -82.6301 123.77C-82.6101 123.79 -82.5801 123.81 -82.5501 123.82C-82.5401 123.82 -82.5201 123.84 -82.5101 123.85C-82.4701 123.87 -82.4201 123.89 -82.3801 123.91L-69.2301 128.301C-69.2301 128.301 -69.1601 128.321 -69.1301 128.331L-30.7201 135.784C-30.6701 135.784 -30.6201 135.794 -30.5601 135.794C-30.4701 135.794 -30.3701 135.774 -30.2901 135.744L18.8299 118.278C19.1099 118.178 19.3199 117.928 19.3599 117.638L24.7099 85.0373C24.7399 84.8272 24.6999 84.6172 24.5799 84.4371L18.4799 75.5843C18.4799 75.5843 18.4599 75.5643 18.4499 75.5543C18.4499 75.5543 18.4499 75.5443 18.4399 75.5343C18.4399 75.5343 18.4299 75.5343 18.4299 75.5243C18.3999 75.4842 18.3699 75.4542 18.3299 75.4242C18.3299 75.4242 18.3299 75.4242 18.3199 75.4242C18.2799 75.3942 18.2399 75.3642 18.1899 75.3442C18.1799 75.3442 18.1699 75.3342 18.1599 75.3242C18.1199 75.3042 18.0799 75.2942 18.0399 75.2742H18.0199C17.9699 75.2642 17.9199 75.2542 17.8599 75.2542L-39.6101 72.6833C-39.7401 72.6833 -39.8801 72.7034 -40.0001 72.7634L-85.5101 94.4303C-85.8301 94.5804 -86.0101 94.9105 -85.9701 95.2606L-82.9301 123.24C-82.9301 123.26 -82.9301 123.27 -82.9301 123.29L-82.9201 123.28ZM-83.8501 95.8808L-39.4201 74.704L16.4099 77.1548L10.6299 111.106L-19.1201 121.969L-40.7401 129.582L-59.0101 126.361L-81.0301 122.089L-83.8501 95.8708V95.8808Z" fill="#F47622"/>
<path d="M42.16 123.28C42.16 123.28 42.17 123.34 42.18 123.37C42.18 123.39 42.19 123.4 42.2 123.42C42.21 123.45 42.22 123.47 42.23 123.5C42.23 123.52 42.25 123.53 42.26 123.55C42.27 123.57 42.29 123.6 42.31 123.62C42.32 123.64 42.33 123.65 42.35 123.67C42.37 123.69 42.39 123.71 42.41 123.73C42.42 123.74 42.44 123.76 42.45 123.77C42.47 123.79 42.5 123.81 42.53 123.82C42.54 123.82 42.56 123.84 42.57 123.85C42.61 123.87 42.66 123.89 42.7 123.91L55.85 128.301C55.85 128.301 55.92 128.321 55.95 128.331L94.36 135.784C94.41 135.784 94.46 135.794 94.52 135.794C94.61 135.794 94.71 135.774 94.79 135.744L143.91 118.278C144.19 118.178 144.4 117.928 144.44 117.638L149.79 85.0373C149.82 84.8272 149.78 84.6172 149.66 84.4371L143.56 75.5843C143.56 75.5843 143.54 75.5643 143.53 75.5543C143.53 75.5543 143.53 75.5443 143.52 75.5343C143.52 75.5343 143.51 75.5343 143.51 75.5243C143.48 75.4842 143.45 75.4542 143.41 75.4242C143.41 75.4242 143.41 75.4242 143.4 75.4242C143.36 75.3942 143.32 75.3642 143.27 75.3442C143.26 75.3442 143.25 75.3342 143.24 75.3242C143.2 75.3042 143.16 75.2942 143.12 75.2742H143.1C143.05 75.2642 143 75.2542 142.94 75.2542L85.47 72.6833C85.34 72.6833 85.2 72.7034 85.08 72.7634L39.57 94.4303C39.25 94.5804 39.07 94.9105 39.11 95.2606L42.15 123.24C42.15 123.26 42.15 123.27 42.15 123.29L42.16 123.28ZM41.23 95.8808L85.66 74.704L141.49 77.1548L135.71 111.106L105.96 121.969L84.34 129.582L66.07 126.361L44.05 122.089L41.23 95.8708V95.8808Z" fill="#F47622"/>
<path d="M167.24 123.28C167.24 123.28 167.25 123.34 167.26 123.37C167.26 123.39 167.27 123.4 167.28 123.42C167.29 123.45 167.3 123.47 167.31 123.5C167.31 123.52 167.33 123.53 167.34 123.55C167.35 123.57 167.37 123.6 167.39 123.62C167.4 123.64 167.41 123.65 167.43 123.67C167.45 123.69 167.47 123.71 167.49 123.73C167.5 123.74 167.52 123.76 167.53 123.77C167.55 123.79 167.58 123.81 167.61 123.82C167.62 123.82 167.64 123.84 167.65 123.85C167.69 123.87 167.74 123.89 167.78 123.91L180.93 128.301C180.93 128.301 181 128.321 181.03 128.331L219.44 135.784C219.49 135.784 219.54 135.794 219.6 135.794C219.69 135.794 219.79 135.774 219.87 135.744L268.99 118.278C269.27 118.178 269.48 117.928 269.52 117.638L274.87 85.0373C274.9 84.8272 274.86 84.6172 274.74 84.4371L268.64 75.5843C268.64 75.5843 268.62 75.5643 268.61 75.5543C268.61 75.5543 268.61 75.5443 268.6 75.5343C268.6 75.5343 268.59 75.5343 268.59 75.5243C268.56 75.4842 268.53 75.4542 268.49 75.4242C268.49 75.4242 268.49 75.4242 268.48 75.4242C268.44 75.3942 268.4 75.3642 268.35 75.3442C268.34 75.3442 268.33 75.3342 268.32 75.3242C268.28 75.3042 268.24 75.2942 268.2 75.2742H268.18C268.13 75.2642 268.08 75.2542 268.02 75.2542L210.55 72.6833C210.42 72.6833 210.28 72.7034 210.16 72.7634L164.65 94.4303C164.33 94.5804 164.15 94.9105 164.19 95.2606L167.23 123.24C167.23 123.26 167.23 123.27 167.23 123.29L167.24 123.28ZM166.31 95.8808L210.74 74.704L266.57 77.1548L260.79 111.106L231.04 121.969L209.42 129.582L191.15 126.361L169.13 122.089L166.31 95.8708V95.8808Z" fill="#F47622"/>
<path d="M-43.8302 195.953C-43.8302 195.953 -43.8202 196.013 -43.8102 196.043C-43.8102 196.063 -43.8002 196.073 -43.7902 196.093C-43.7802 196.123 -43.7702 196.143 -43.7602 196.173C-43.7602 196.193 -43.7402 196.203 -43.7302 196.223C-43.7202 196.243 -43.7002 196.273 -43.6802 196.293C-43.6702 196.313 -43.6602 196.323 -43.6402 196.343C-43.6202 196.363 -43.6002 196.383 -43.5802 196.403C-43.5702 196.413 -43.5502 196.433 -43.5402 196.443C-43.5202 196.463 -43.4902 196.483 -43.4602 196.493C-43.4502 196.493 -43.4302 196.513 -43.4202 196.523C-43.3802 196.543 -43.3302 196.563 -43.2902 196.583L-30.1402 200.975C-30.1402 200.975 -30.0702 200.995 -30.0402 201.005L8.36977 208.457C8.41977 208.457 8.46977 208.467 8.52977 208.467C8.61977 208.467 8.71977 208.447 8.79977 208.417L57.9198 190.951C58.1998 190.851 58.4098 190.601 58.4498 190.311L63.7998 157.711C63.8298 157.501 63.7898 157.291 63.6698 157.11L57.5698 148.258C57.5698 148.258 57.5498 148.238 57.5398 148.228C57.5398 148.228 57.5398 148.218 57.5298 148.208C57.5298 148.208 57.5198 148.208 57.5198 148.198C57.4898 148.158 57.4598 148.128 57.4198 148.098C57.4198 148.098 57.4198 148.098 57.4098 148.098C57.3698 148.068 57.3298 148.038 57.2798 148.018C57.2698 148.018 57.2598 148.008 57.2498 147.998C57.2098 147.978 57.1698 147.968 57.1298 147.948H57.1098C57.0598 147.938 57.0098 147.928 56.9498 147.928L-0.520226 145.357C-0.650226 145.357 -0.790225 145.377 -0.910225 145.437L-46.4202 167.104C-46.7402 167.254 -46.9202 167.584 -46.8802 167.934L-43.8402 195.913C-43.8402 195.933 -43.8402 195.943 -43.8402 195.963L-43.8302 195.953ZM-44.7602 168.554L-0.330227 147.377L55.4998 149.828L49.7198 183.779L19.9698 194.643L-1.65023 202.255L-19.9202 199.034L-41.9402 194.763L-44.7602 168.544V168.554Z" fill="#F47622"/>
<path d="M81.2601 195.953C81.2601 195.953 81.2701 196.013 81.2801 196.043C81.2801 196.063 81.2901 196.073 81.3001 196.093C81.3101 196.123 81.3201 196.143 81.3301 196.173C81.3301 196.193 81.3501 196.203 81.3601 196.223C81.3701 196.243 81.3901 196.273 81.4101 196.293C81.4201 196.313 81.4301 196.323 81.4501 196.343C81.4701 196.363 81.4901 196.383 81.5101 196.403C81.5201 196.413 81.5401 196.433 81.5501 196.443C81.5701 196.463 81.6001 196.483 81.6301 196.493C81.6401 196.493 81.6601 196.513 81.6701 196.523C81.7101 196.543 81.7601 196.563 81.8001 196.583L94.9501 200.975C94.9501 200.975 95.0201 200.995 95.0501 201.005L133.46 208.457C133.51 208.457 133.56 208.467 133.62 208.467C133.71 208.467 133.81 208.447 133.89 208.417L183.01 190.951C183.29 190.851 183.5 190.601 183.54 190.311L188.89 157.711C188.92 157.501 188.88 157.291 188.76 157.11L182.66 148.258C182.66 148.258 182.64 148.238 182.63 148.228C182.63 148.228 182.63 148.218 182.62 148.208C182.62 148.208 182.61 148.208 182.61 148.198C182.58 148.158 182.55 148.128 182.51 148.098C182.51 148.098 182.51 148.098 182.5 148.098C182.46 148.068 182.42 148.038 182.37 148.018C182.36 148.018 182.35 148.008 182.34 147.998C182.3 147.978 182.26 147.968 182.22 147.948H182.2C182.15 147.938 182.1 147.928 182.04 147.928L124.57 145.357C124.44 145.357 124.3 145.377 124.18 145.437L78.6701 167.104C78.3501 167.254 78.1701 167.584 78.2101 167.934L81.2501 195.913C81.2501 195.933 81.2501 195.943 81.2501 195.963L81.2601 195.953ZM80.3301 168.554L124.76 147.377L180.59 149.828L174.81 183.779L145.06 194.643L123.44 202.255L105.17 199.034L83.1501 194.763L80.3301 168.544V168.554Z" fill="#F47622"/>
<path d="M206.34 195.953C206.34 195.953 206.35 196.013 206.36 196.043C206.36 196.063 206.37 196.073 206.38 196.093C206.39 196.123 206.4 196.143 206.41 196.173C206.41 196.193 206.43 196.203 206.44 196.223C206.45 196.243 206.47 196.273 206.49 196.293C206.5 196.313 206.51 196.323 206.53 196.343C206.55 196.363 206.57 196.383 206.59 196.403C206.6 196.413 206.62 196.433 206.63 196.443C206.65 196.463 206.68 196.483 206.71 196.493C206.72 196.493 206.74 196.513 206.75 196.523C206.79 196.543 206.84 196.563 206.88 196.583L220.03 200.975C220.03 200.975 220.1 200.995 220.13 201.005L258.54 208.457C258.59 208.457 258.64 208.467 258.7 208.467C258.79 208.467 258.89 208.447 258.97 208.417L308.09 190.951C308.37 190.851 308.58 190.601 308.62 190.311L313.97 157.711C314 157.501 313.96 157.291 313.84 157.11L307.74 148.258C307.74 148.258 307.72 148.238 307.71 148.228C307.71 148.228 307.71 148.218 307.7 148.208C307.7 148.208 307.69 148.208 307.69 148.198C307.66 148.158 307.63 148.128 307.59 148.098C307.59 148.098 307.59 148.098 307.58 148.098C307.54 148.068 307.5 148.038 307.45 148.018C307.44 148.018 307.43 148.008 307.42 147.998C307.38 147.978 307.34 147.968 307.3 147.948H307.28C307.23 147.938 307.18 147.928 307.12 147.928L249.65 145.357C249.52 145.357 249.38 145.377 249.26 145.437L203.75 167.104C203.43 167.254 203.25 167.584 203.29 167.934L206.33 195.913C206.33 195.933 206.33 195.943 206.33 195.963L206.34 195.953ZM205.41 168.554L249.84 147.377L305.67 149.828L299.89 183.779L270.14 194.643L248.52 202.255L230.25 199.034L208.23 194.763L205.41 168.544V168.554Z" fill="#F47622"/>
<path d="M3.06993 50.6163C3.06993 50.6163 3.07993 50.6763 3.08993 50.7063C3.08993 50.7263 3.09993 50.7363 3.10993 50.7563C3.11993 50.7863 3.12993 50.8063 3.13993 50.8363C3.13993 50.8563 3.15993 50.8663 3.16993 50.8863C3.17993 50.9063 3.19993 50.9364 3.21993 50.9564C3.22993 50.9764 3.23993 50.9864 3.25993 51.0064C3.27993 51.0264 3.29993 51.0464 3.31993 51.0664C3.32993 51.0764 3.34993 51.0964 3.35993 51.1064C3.37993 51.1264 3.40993 51.1464 3.43993 51.1564C3.44993 51.1564 3.46993 51.1764 3.47993 51.1864C3.51993 51.2064 3.56993 51.2265 3.60993 51.2465L16.7599 55.6379C16.7599 55.6379 16.8299 55.6579 16.8599 55.6679L55.2699 63.1203C55.3199 63.1203 55.3699 63.1303 55.4299 63.1303C55.5199 63.1303 55.6199 63.1103 55.6999 63.0803L104.82 45.6146C105.1 45.5146 105.31 45.2645 105.35 44.9744L110.7 12.374C110.73 12.1639 110.69 11.9538 110.57 11.7738L104.47 2.92094C104.47 2.92094 104.45 2.90093 104.44 2.89093C104.44 2.89093 104.44 2.88093 104.43 2.87092C104.43 2.87092 104.42 2.87092 104.42 2.86092C104.39 2.82091 104.36 2.7909 104.32 2.76089C104.32 2.76089 104.32 2.76089 104.31 2.76089C104.27 2.73088 104.23 2.70087 104.18 2.68086C104.17 2.68086 104.16 2.67086 104.15 2.66085C104.11 2.64085 104.07 2.63084 104.03 2.61084H104.01C103.96 2.60084 103.91 2.59083 103.85 2.59083L46.3899 0C46.2599 0 46.1199 0.0200064 45.9999 0.0800257L0.48993 21.747C0.16993 21.897 -0.0100697 22.2271 0.0299303 22.5773L3.06993 50.5562C3.06993 50.5762 3.06993 50.5862 3.06993 50.6063V50.6163ZM2.13993 23.2175L46.5699 2.04066L102.4 4.49144L96.6199 38.4423L66.8699 49.3058L45.2499 56.9183L26.9799 53.6972L4.95993 49.4259L2.13993 23.2075V23.2175Z" fill="#F47622"/>
<path d="M128.15 50.6163C128.15 50.6163 128.16 50.6763 128.17 50.7063C128.17 50.7263 128.18 50.7363 128.19 50.7563C128.2 50.7863 128.21 50.8063 128.22 50.8363C128.22 50.8563 128.24 50.8663 128.25 50.8863C128.26 50.9063 128.28 50.9364 128.3 50.9564C128.31 50.9764 128.32 50.9864 128.34 51.0064C128.36 51.0264 128.38 51.0464 128.4 51.0664C128.41 51.0764 128.43 51.0964 128.44 51.1064C128.46 51.1264 128.49 51.1464 128.52 51.1564C128.53 51.1564 128.55 51.1764 128.56 51.1864C128.6 51.2064 128.65 51.2265 128.69 51.2465L141.84 55.6379C141.84 55.6379 141.91 55.6579 141.94 55.6679L180.35 63.1203C180.4 63.1203 180.45 63.1303 180.51 63.1303C180.6 63.1303 180.7 63.1103 180.78 63.0803L229.9 45.6146C230.18 45.5146 230.39 45.2645 230.43 44.9744L235.78 12.374C235.81 12.1639 235.77 11.9538 235.65 11.7738L229.55 2.92094C229.55 2.92094 229.53 2.90093 229.52 2.89093C229.52 2.89093 229.52 2.88093 229.51 2.87092C229.51 2.87092 229.5 2.87092 229.5 2.86092C229.47 2.82091 229.44 2.7909 229.4 2.76089C229.4 2.76089 229.4 2.76089 229.39 2.76089C229.35 2.73088 229.31 2.70087 229.26 2.68086C229.25 2.68086 229.24 2.67086 229.23 2.66085C229.19 2.64085 229.15 2.63084 229.11 2.61084H229.09C229.04 2.60084 228.99 2.59083 228.93 2.59083L171.47 0C171.34 0 171.2 0.0200064 171.08 0.0800257L125.57 21.747C125.25 21.897 125.07 22.2271 125.11 22.5773L128.15 50.5562C128.15 50.5762 128.15 50.5862 128.15 50.6063V50.6163ZM127.22 23.2175L171.65 2.04066L227.48 4.49144L221.7 38.4423L191.95 49.3058L170.33 56.9183L152.06 53.6972L130.04 49.4259L127.22 23.2075V23.2175Z" fill="#F47622"/>
</g>
<defs>
<clipPath id="clip0_7675_80502">
<rect width="250" height="218" fill="white"/>
</clipPath>
</defs>
</svg>
