<svg width="153" height="88" viewBox="0 0 153 88" fill="none" xmlns="http://www.w3.org/2000/svg">
  <path d="M143.537 5.02771C143.537 5.02771 143.524 5.008 143.514 5.00061C143.524 5.01293 143.534 5.02525 143.542 5.03757L143.537 5.02771Z" fill="#FFFFFF"/>
  <path d="M151.911 17.2189L143.541 5.03698C143.541 5.03698 143.524 5.01265 143.514 5.00048C143.507 4.98588 143.495 4.97371 143.485 4.95911C143.476 4.94694 143.463 4.93478 143.451 4.92261C143.451 4.92018 143.451 4.91774 143.446 4.91531C143.422 4.88611 143.395 4.85934 143.369 4.83744C143.354 4.82284 143.34 4.81067 143.325 4.80094C143.315 4.78877 143.306 4.78147 143.293 4.7766C143.272 4.75713 143.25 4.7401 143.226 4.7255C143.216 4.7182 143.204 4.7109 143.192 4.70603C143.167 4.689 143.143 4.6744 143.116 4.66223C143.08 4.64276 143.043 4.62816 143.007 4.61356C142.985 4.60383 142.961 4.59653 142.937 4.59166C142.886 4.57219 142.832 4.56002 142.776 4.55272C142.74 4.54786 142.704 4.54299 142.665 4.54056H142.604L63.7047 0.999881C63.5202 0.990147 63.3382 1.02908 63.1707 1.10939L0.642582 30.946C0.210483 31.1528 -0.0444072 31.6103 0.0065708 32.0897L4.17948 70.5748C4.18191 70.604 4.18676 70.6332 4.19162 70.6624C4.1989 70.7183 4.21347 70.7767 4.23046 70.8303C4.24017 70.8595 4.24988 70.8862 4.26202 70.913C4.26687 70.9301 4.27415 70.9471 4.28144 70.9617C4.29357 70.9885 4.30814 71.0128 4.3227 71.0396C4.33727 71.0663 4.35184 71.0907 4.36883 71.115C4.38582 71.1393 4.40281 71.1637 4.42223 71.188C4.49749 71.2805 4.58488 71.3632 4.68441 71.4289C4.71111 71.4459 4.73538 71.4605 4.76209 71.4751C4.81549 71.5043 4.87132 71.5287 4.92959 71.5506C4.93444 71.5506 4.94172 71.5555 4.94658 71.5579L23.0171 77.6026C23.0632 77.6196 23.1117 77.6318 23.1603 77.6415L75.9297 87.901C76.0026 87.9131 76.073 87.9204 76.1458 87.9204C76.2745 87.9204 76.4007 87.8985 76.5221 87.8547L144.005 63.8098C144.393 63.6735 144.675 63.3352 144.74 62.9289L152.096 18.0438C152.144 17.7566 152.079 17.4598 151.911 17.2189V17.2189ZM132.712 53.9251L91.8397 68.8884L62.1366 79.3741L37.0408 74.9428L6.79392 69.066L2.91717 32.9682L63.9548 3.81539L140.652 7.18329L132.712 53.9251Z" fill="#FFFFFF"/>
  <path d="M4.17944 70.5748V70.6065C4.1843 70.626 4.18673 70.643 4.19159 70.6625C4.18673 70.6333 4.18187 70.6041 4.17944 70.5748Z" fill="#FFFFFF"/>
  <path d="M102.637 49.4062C103.839 49.3843 104.766 50.3942 104.766 51.6547C104.766 52.9153 103.839 53.9033 102.64 53.8497C101.441 53.7986 100.511 52.7887 100.508 51.6012C100.508 50.4137 101.433 49.4281 102.635 49.4062H102.637ZM102.64 53.4433C103.611 53.4798 104.368 52.6768 104.368 51.6499C104.368 50.623 103.608 49.8005 102.637 49.8126C101.659 49.8248 100.907 50.6327 100.909 51.6061C100.909 52.5843 101.664 53.4068 102.64 53.4433ZM103.079 51.9176C103.242 52.1925 103.417 52.47 103.543 52.7668L103.001 52.7522L102.596 51.9589H102.392V52.7352L101.88 52.7206V50.511H102.812C103.264 50.5062 103.511 50.8541 103.511 51.2605C103.511 51.5793 103.361 51.8251 103.077 51.92L103.079 51.9176ZM102.754 51.5477C102.904 51.5477 102.994 51.4138 102.994 51.2532C102.994 51.1121 102.897 50.9247 102.754 50.9247H102.392V51.5428L102.754 51.5477Z" fill="#FFFFFF"/>
  <path d="M45.826 40.6993C45.7945 32.8344 43.5927 29.2329 39.1722 29.7829C38.9027 29.8169 38.626 29.8656 38.342 29.9289C33.7928 30.9387 31.125 36.3532 31.2148 44.8508C31.3022 52.8788 33.7224 56.9353 37.9075 56.4097C38.1211 56.3829 38.3396 56.344 38.5653 56.2929C42.4663 55.4169 45.1463 51.2581 45.5808 45.2523L40.7986 46.3352C40.5462 48.2941 39.7766 49.9465 38.8518 50.1606C38.8032 50.1703 38.7571 50.1801 38.711 50.1849C37.5263 50.3334 36.9049 48.8173 36.8733 45.4543L36.866 44.5126L45.8115 42.4952C45.8333 41.8942 45.8333 41.2371 45.826 40.6969V40.6993ZM36.4461 40.4779C36.417 37.4531 37.3103 35.6061 38.4027 35.3774C38.4609 35.3652 38.5168 35.3555 38.5726 35.3482C39.83 35.1997 40.4685 36.6647 40.5 39.614L36.4437 40.4779H36.4461ZM62.474 48.4937L63.5834 51.1437L56.6091 51.9979L56.5848 36.0733C56.5848 34.5184 56.1212 33.8516 55.3929 33.9757C54.6622 34.129 54.0238 35.1827 54.0262 36.7693L54.0723 52.5332L46.933 54.0736L48.2851 50.9904L48.1759 30.9242L46.7703 28.498L53.9922 26.9528L54.0044 30.7489C55.1113 27.5928 56.4926 25.9769 58.5147 25.5486C58.5754 25.5365 58.6336 25.5243 58.6943 25.5146C61.0879 25.1082 62.5007 27.1645 62.5007 31.5057L62.4716 48.4961L62.474 48.4937ZM82.0617 47.2818L83.1516 49.6058L75.2379 50.1192L75.4758 33.3625C75.602 31.8318 75.2573 31.0629 74.4684 31.1286C73.5143 31.2478 72.9536 32.1871 72.7715 33.7397L71.9971 50.4599L64.9112 51.0415L66.2706 48.2138L66.8168 28.0381L65.8045 24.9671L73.0337 23.7917L73.0386 27.3032C74.5266 24.366 75.7647 22.7867 77.8014 22.5458C77.8475 22.5409 77.8912 22.5312 77.9373 22.5312C83.2147 22.5263 82.319 27.4419 82.2753 34.9053L82.0592 47.2891L82.0617 47.2818ZM18.3489 32.5911C17.2104 32.832 16.0039 33.3454 14.5887 33.7616L8.78204 35.74L10.809 38.2732L12.8627 60.3495L11.4256 63.8902L18.7713 61.9848C26.3112 59.7435 29.5786 53.8716 28.7338 44.5077C28.076 37.2682 26.6826 30.8317 18.3489 32.5911ZM19.6938 54.9837C19.5724 55.0129 19.2447 55.1078 18.2639 55.4096L16.6496 38.4922C17.6109 38.2075 17.9265 38.1126 18.0066 38.0882C18.1984 38.0323 18.3805 37.9958 18.5577 37.9739C20.9852 37.6867 22.182 40.5996 22.6383 45.4592C23.1141 50.6327 22.3495 54.1953 19.6938 54.9813V54.9837ZM95.3451 21.7184L106.283 20.8326L103.875 23.9085L93.6045 56.2588L84.9067 56.5533L87.3488 52.8934L88.446 47.3329L83.8726 25.3564L82.5277 22.7185L92.716 22.0128L91.075 25.2323L92.8714 40.1591L96.2894 24.4585L95.3451 21.7184ZM105.813 17.3722C106.043 15.5958 107.468 13.5785 109.539 13.1624C109.726 13.1259 109.917 13.0991 110.114 13.0894C112.425 12.9458 114.01 14.6711 113.6 17.6205C112.947 22.373 109.857 24.3855 107.456 26.6583C107.386 26.724 107.308 26.7727 107.252 26.7824C107.165 26.7994 107.123 26.7289 107.22 26.4953C107.844 24.9354 109.323 21.2852 109.272 21.2779C108.988 21.239 108.534 21.1368 108.148 21.0541C105.732 20.5601 105.723 18.0147 105.81 17.3698L105.813 17.3722ZM127.048 21.8887L125.92 28.6878C124.383 27.1645 121.82 26.1278 120.535 26.1327C120.368 26.1327 120.205 26.1521 120.048 26.1838C118.436 26.5293 117.518 28.0892 118.812 29.7488C119.227 30.2671 119.797 30.7684 120.319 31.294C123.201 34.1728 125.776 37.3412 125.017 41.5608C124.165 46.3133 120.968 48.9414 116.673 49.8686C115.909 50.0341 115.11 50.1217 114.282 50.1241C112.146 50.1387 109.349 48.9901 107.495 47.5519L108.864 39.6286C110.75 41.5072 112.869 42.6972 114.144 42.6948C114.323 42.6948 114.496 42.6729 114.663 42.6364C115.656 42.4222 116.411 41.6338 116.569 40.6677C116.753 39.6213 115.617 38.5068 114.615 37.3168C112.003 34.1874 110.262 31.9876 110.925 28.2449C111.639 24.1299 114.675 20.9397 118.644 20.088C119.305 19.9468 119.948 19.8738 120.654 19.869C122.553 19.8617 125.092 20.818 127.051 21.8839L127.048 21.8887Z" fill="#FFFFFF"/>
</svg>
