<svg width="22" height="22" viewBox="0 0 22 22" fill="none" xmlns="http://www.w3.org/2000/svg">
<path d="M4.31118 0C1.94037 0 0 1.94032 0 4.31118V17.6895C0 20.0603 1.94032 22 4.31118 22H17.6895C20.0604 22 22 20.0604 22 17.6895V4.31118C22 1.94037 20.0604 0 17.6895 0H4.31118ZM5.3955 3.63044C6.53226 3.63044 7.23245 4.3767 7.25406 5.35765C7.25406 6.31694 6.53221 7.08417 5.37352 7.08417H5.35219C4.23707 7.08417 3.51632 6.31698 3.51632 5.35765C3.51632 4.37672 4.25888 3.63044 5.39548 3.63044H5.3955ZM15.1915 8.21524C17.3777 8.21524 19.0166 9.64417 19.0166 12.7148V18.4472H15.6942V13.0992C15.6942 11.7552 15.2133 10.8384 14.011 10.8384C13.0931 10.8384 12.546 11.4564 12.3058 12.0533C12.218 12.2669 12.1964 12.5652 12.1964 12.864V18.4472H8.87401C8.87401 18.4472 8.91761 9.38776 8.87401 8.44971H12.1971V9.86546C12.6386 9.18426 13.4284 8.21524 15.1915 8.21524ZM3.7123 8.45044H7.03471V18.4473H3.7123V8.45044Z" fill="white"/>
</svg>
