<?xml version="1.0" encoding="UTF-8"?>
<svg width="22px" height="22px" viewBox="0 0 22 22" version="1.1" xmlns="http://www.w3.org/2000/svg" xmlns:xlink="http://www.w3.org/1999/xlink">
    <title>Path</title>
    <g id="Page-1" stroke="none" stroke-width="1" fill="none" fill-rule="evenodd">
        <g id="Social" transform="translate(-80.000000, 0.000000)" fill="#FFFFFF">
            <path d="M91.0001,2.12705 C93.8919,2.12705 94.2313,2.13994 95.3743,2.1915 C96.4313,2.23877 97.0028,2.41494 97.3853,2.56533 C97.8923,2.76299 98.2532,2.99502 98.6313,3.37314 C99.009,3.75127 99.246,4.11221 99.439,4.61924 C99.585,5.00166 99.766,5.57314 99.813,6.63018 C99.865,7.77314 99.877,8.1126 99.877,11.0044 C99.877,13.8962 99.865,14.2356 99.813,15.3786 C99.766,16.4356 99.59,17.0071 99.439,17.3896 C99.242,17.8966 99.009,18.2575 98.6313,18.6356 C98.2532,19.0138 97.8923,19.2501 97.3853,19.4435 C97.0028,19.5896 96.4313,19.77 95.3743,19.8173 C94.2313,19.8688 93.8919,19.8817 91.0001,19.8817 C88.1083,19.8817 87.7688,19.8688 86.6259,19.8173 C85.5688,19.77 84.9974,19.5938 84.6149,19.4435 C84.1079,19.2458 83.747,19.0138 83.3688,18.6356 C82.9907,18.2575 82.7544,17.8966 82.561,17.3896 C82.4149,17.0071 82.2345,16.4356 82.1872,15.3786 C82.1356,14.2356 82.1228,13.8962 82.1228,11.0044 C82.1228,8.1126 82.1356,7.77314 82.1872,6.63018 C82.2345,5.57314 82.4106,5.00166 82.561,4.61924 C82.7587,4.11221 82.9907,3.75127 83.3688,3.37314 C83.747,2.99502 84.1079,2.75869 84.6149,2.56533 C84.9974,2.41924 85.5688,2.23877 86.6259,2.1915 C87.7688,2.13564 88.1083,2.12705 91.0001,2.12705 Z M91.0001,0.17627 C88.061,0.17627 87.6915,0.18916 86.5356,0.24072 C85.3841,0.29229 84.5978,0.47705 83.9103,0.74346 C83.197,1.01846 82.5954,1.39229 81.9938,1.99385 C81.3923,2.59541 81.0228,3.20127 80.7435,3.91025 C80.4771,4.59775 80.2923,5.38408 80.2407,6.53994 C80.1892,7.6915 80.1763,8.06103 80.1763,11.0001 C80.1763,13.9392 80.1892,14.3087 80.2407,15.4646 C80.2923,16.6161 80.4771,17.4024 80.7435,18.0942 C81.0185,18.8075 81.3923,19.4091 81.9938,20.0106 C82.5954,20.6122 83.2013,20.9817 83.9103,21.261 C84.5978,21.5274 85.3841,21.7122 86.5399,21.7638 C87.6958,21.8153 88.061,21.8282 91.0044,21.8282 C93.9478,21.8282 94.313,21.8153 95.4688,21.7638 C96.6204,21.7122 97.4067,21.5274 98.0985,21.261 C98.8118,20.986 99.413,20.6122 100.015,20.0106 C100.617,19.4091 100.986,18.8032 101.265,18.0942 C101.532,17.4067 101.717,16.6204 101.768,15.4646 C101.82,14.3087 101.833,13.9435 101.833,11.0001 C101.833,8.05674 101.82,7.6915 101.768,6.53564 C101.717,5.38408 101.532,4.59775 101.265,3.90596 C100.99,3.19268 100.617,2.59111 100.015,1.98955 C99.413,1.38799 98.8075,1.01846 98.0985,0.73916 C97.411,0.47275 96.6247,0.28799 95.4688,0.23643 C94.3087,0.18916 93.9392,0.17627 91.0001,0.17627 Z M91.0001,5.43994 C87.9321,5.43994 85.4399,7.92783 85.4399,11.0001 C85.4399,14.0724 87.9321,16.5603 91.0001,16.5603 C94.0681,16.5603 96.5603,14.0681 96.5603,11.0001 C96.5603,7.93213 94.0681,5.43994 91.0001,5.43994 Z M91.0001,14.6095 C89.0063,14.6095 87.3907,12.9938 87.3907,11.0001 C87.3907,9.0063 89.0063,7.39072 91.0001,7.39072 C92.9938,7.39072 94.6095,9.0063 94.6095,11.0001 C94.6095,12.9938 92.9938,14.6095 91.0001,14.6095 Z M98.0768,5.22081 C98.0768,5.93749 97.4958,6.51847 96.7791,6.51847 C96.0624,6.51847 95.4814,5.93749 95.4814,5.22081 C95.4814,4.50414 96.0624,3.92316 96.7791,3.92316 C97.4958,3.92316 98.0768,4.50414 98.0768,5.22081 Z" id="Shape"></path>
        </g>
    </g>
</svg>